# xmcd CD database file
#
# Track frame offsets:
#	150
#	18806
#	31649
#	45899
#	57861
#	76873
#	92679
#	109966
#	128419
#	144994
#	156769
#	168581
#	178837
#	190555
#	207973
#	220798
#
# Disc length: 3199 seconds
#
# Revision: 1
# Processed by: cddbd v1.5.1PL2 Copyright (c) Steve Scherf et al.
# Submitted via: CDex 1.51
#
DISCID=bf0c7d10
DTITLE=Renus Trio - Jazz Palette 1
DYEAR=2006
DGENRE=Jazz
TTITLE0=Kann denn Liebe Sünde sein - Michael Jary
TTITLE1=How High the Moon - Morgan Lewis
TTITLE2=Wenn der weiße Flieder wieder blüht - Franz Doelle
TTITLE3=Killing me softly with this Song - Charles Fox
TTITLE4=Recado - Djalma Ferreira
TTITLE5=Mambo Inn - Mario Bauza
TTITLE6=It had to be You - Isham Jones
TTITLE7=Lover Man - Roger Ramirez
TTITLE8=After You've gone - Turner Layton
TTITLE9=The Sheik of Araby - Ted Snyder
TTITLE10=Numbers Boogie - Sugar Child Robinson
TTITLE11=Memphis Underground - Herbie Mann
TTITLE12=I'm beginning to see the Light - Duke Ellington
TTITLE13=What a Difference a Day made - Maria Grever
TTITLE14=Mustard Greens - Jimmy Smith
TTITLE15=Träumerei - Robert Schumann
EXTD=YEAR: 2006
EXTT0=
EXTT1=
EXTT2=
EXTT3=
EXTT4=
EXTT5=
EXTT6=
EXTT7=
EXTT8=
EXTT9=
EXTT10=
EXTT11=
EXTT12=
EXTT13=
EXTT14=
EXTT15=
PLAYORDER=
